<?xml version="1.0" encoding="utf-8"?>
<!DOCTYPE svg PUBLIC "-//W3C//DTD SVG 1.1//EN" "http://www.w3.org/Graphics/SVG/1.1/DTD/svg11.dtd">
<svg version="1.1" id="Layer_1" xmlns="http://www.w3.org/2000/svg" xmlns:xlink="http://www.w3.org/1999/xlink" x="0px" y="0px"
	 width="500px" height="500px" viewBox="0 0 500 500" enable-background="new 0 0 500 500" xml:space="preserve">
	 
	<symbol id="icon-paragraph-left" viewBox="0 0 32 32">
	    <title>paragraph-left</title>
	    <path d="M0 2h32v4h-32zM0 8h20v4h-20zM0 20h20v4h-20zM0 14h32v4h-32zM0 26h32v4h-32z"></path>
	</symbol>

	<symbol id="icon-paragraph-center" viewBox="0 0 32 32">
		<title>paragraph-center</title>
		<path d="M0 2h32v4h-32zM6 8h20v4h-20zM6 20h20v4h-20zM0 14h32v4h-32zM0 26h32v4h-32z"></path>
	</symbol>

	<symbol id="icon-paragraph-right" viewBox="0 0 32 32">
		<title>paragraph-right</title>
		<path d="M0 2h32v4h-32zM12 8h20v4h-20zM12 20h20v4h-20zM0 14h32v4h-32zM0 26h32v4h-32z"></path>
	</symbol>

	<symbol id="icon-embed2" viewBox="0 0 40 32">
		<title>embed2</title>
		<path d="M26 23l3 3 10-10-10-10-3 3 7 7z"></path>
		<path d="M14 9l-3-3-10 10 10 10 3-3-7-7z"></path>
		<path d="M21.916 4.704l2.171 0.592-6 22.001-2.171-0.592 6-22.001z"></path>
	</symbol>

	<symbol id="icon-link" viewBox="0 0 32 32">
		<title>link</title>
		<path d="M13.757 19.868c-0.416 0-0.832-0.159-1.149-0.476-2.973-2.973-2.973-7.81 0-10.783l6-6c1.44-1.44 3.355-2.233 5.392-2.233s3.951 0.793 5.392 2.233c2.973 2.973 2.973 7.81 0 10.783l-2.743 2.743c-0.635 0.635-1.663 0.635-2.298 0s-0.635-1.663 0-2.298l2.743-2.743c1.706-1.706 1.706-4.481 0-6.187-0.826-0.826-1.925-1.281-3.094-1.281s-2.267 0.455-3.094 1.281l-6 6c-1.706 1.706-1.706 4.481 0 6.187 0.635 0.635 0.635 1.663 0 2.298-0.317 0.317-0.733 0.476-1.149 0.476z"></path>
		<path d="M8 31.625c-2.037 0-3.952-0.793-5.392-2.233-2.973-2.973-2.973-7.81 0-10.783l2.743-2.743c0.635-0.635 1.664-0.635 2.298 0s0.635 1.663 0 2.298l-2.743 2.743c-1.706 1.706-1.706 4.481 0 6.187 0.826 0.826 1.925 1.281 3.094 1.281s2.267-0.455 3.094-1.281l6-6c1.706-1.706 1.706-4.481 0-6.187-0.635-0.635-0.635-1.663 0-2.298s1.663-0.635 2.298 0c2.973 2.973 2.973 7.81 0 10.783l-6 6c-1.44 1.44-3.355 2.233-5.392 2.233z"></path>
	</symbol>

	<symbol id="icon-picture" viewBox="0 0 32 32">
		<title>picture</title>
		<path d="M20 12l-6 10-3.97-2.896-0.030-0.104-0.236-0.091 0.184 0.135-5.948 4.956v2h24v-2l-3-9-5-3zM9 13c1.656 0 3-1.343 3-3s-1.344-3-3-3-3 1.343-3 3 1.344 3 3 3zM31 2h-30c-0.552 0-1 0.448-1 1v26c0 0.553 0.448 1 1 1h30c0.553 0 1-0.447 1-1v-26c0-0.552-0.447-1-1-1zM30 27c0 0.553-0.447 1-1 1h-26c-0.552 0-1-0.447-1-1v-22c0-0.552 0.448-1 1-1h26c0.553 0 1 0.448 1 1v22z"></path>
	</symbol>
</svg>